<svg xmlns="http://www.w3.org/2000/svg" xmlns:xlink="http://www.w3.org/1999/xlink" width="2000" zoomAndPan="magnify" viewBox="0 0 1500 1499.999933" height="2000" preserveAspectRatio="xMidYMid meet" version="1.0"><defs><g/><clipPath id="6996a47bde"><rect x="0" width="643" y="0" height="893"/></clipPath><clipPath id="a1b76ce49f"><path d="M 1029.625 702.578125 L 1086.191406 702.578125 L 1086.191406 753.75 L 1029.625 753.75 Z M 1029.625 702.578125 " clip-rule="nonzero"/></clipPath><clipPath id="3d913173e7"><path d="M 1085.363281 713.390625 C 1083.582031 707.347656 1077.835938 702.582031 1071.039062 702.578125 C 1065.332031 702.578125 1060.375 705.800781 1057.867188 710.527344 C 1055.363281 705.800781 1050.40625 702.578125 1044.699219 702.578125 C 1037.589844 702.578125 1031.371094 707.347656 1030.152344 714.265625 C 1027.054688 731.808594 1046.675781 745.539062 1057.910156 753.75 C 1068.300781 746.160156 1090.453125 730.679688 1085.363281 713.390625 Z M 1085.363281 713.390625 " clip-rule="nonzero"/></clipPath><clipPath id="78e9c2d3ce"><path d="M 0.625 0.578125 L 57.191406 0.578125 L 57.191406 51.75 L 0.625 51.75 Z M 0.625 0.578125 " clip-rule="nonzero"/></clipPath><clipPath id="cc98a61f46"><path d="M 56.363281 11.390625 C 54.582031 5.347656 48.835938 0.582031 42.039062 0.578125 C 36.332031 0.578125 31.375 3.800781 28.867188 8.527344 C 26.363281 3.800781 21.40625 0.578125 15.699219 0.578125 C 8.589844 0.578125 2.371094 5.347656 1.152344 12.265625 C -1.945312 29.808594 17.675781 43.539062 28.910156 51.75 C 39.300781 44.160156 61.453125 28.679688 56.363281 11.390625 Z M 56.363281 11.390625 " clip-rule="nonzero"/></clipPath><clipPath id="45799a7345"><rect x="0" width="58" y="0" height="52"/></clipPath></defs><rect x="-150" width="1800" fill="#ffffff" y="-149.999993" height="1799.99992" fill-opacity="1"/><rect x="-150" width="1800" fill="#550714" y="-149.999993" height="1799.99992" fill-opacity="1"/><g transform="matrix(1, 0, 0, 1, 437, 298)"><g clip-path="url(#6996a47bde)"><g fill="#ebe2cd" fill-opacity="1"><g transform="translate(30.781253, 696.889836)"><g><path d="M 595.375 -225.625 C 599.90625 -223.613281 601.914062 -221.222656 601.40625 -218.453125 C 600.90625 -215.679688 600.148438 -212.789062 599.140625 -209.78125 C 589.585938 -185.632812 579.65625 -161.613281 569.34375 -137.71875 C 559.03125 -113.820312 546.078125 -91.304688 530.484375 -70.171875 C 527.460938 -66.148438 524.316406 -62.253906 521.046875 -58.484375 C 517.773438 -54.710938 514.628906 -51.066406 511.609375 -47.546875 C 503.566406 -37.484375 493.253906 -31.441406 480.671875 -29.421875 C 468.097656 -27.410156 455.773438 -28.921875 443.703125 -33.953125 C 431.628906 -38.984375 422.320312 -47.789062 415.78125 -60.375 C 409.738281 -71.4375 404.707031 -82.753906 400.6875 -94.328125 C 396.664062 -105.898438 393.144531 -117.722656 390.125 -129.796875 C 387.101562 -143.378906 384.585938 -157.085938 382.578125 -170.921875 C 380.566406 -184.753906 378.804688 -198.460938 377.296875 -212.046875 C 375.785156 -222.609375 373.519531 -232.921875 370.5 -242.984375 C 367.488281 -253.046875 362.207031 -254.550781 354.65625 -247.5 C 347.113281 -239.957031 340.445312 -231.785156 334.65625 -222.984375 C 328.875 -214.179688 323.71875 -204.75 319.1875 -194.6875 C 309.632812 -171.039062 301.207031 -147.269531 293.90625 -123.375 C 286.613281 -99.476562 280.453125 -74.953125 275.421875 -49.796875 C 273.410156 -39.234375 271.898438 -31.941406 270.890625 -27.921875 C 269.890625 -23.898438 267.25 -21.757812 262.96875 -21.5 C 258.695312 -21.25 250.523438 -21.628906 238.453125 -22.640625 C 229.398438 -23.140625 223.992188 -24.269531 222.234375 -26.03125 C 220.472656 -27.789062 219.59375 -33.453125 219.59375 -43.015625 C 219.59375 -64.640625 219.59375 -86.519531 219.59375 -108.65625 C 219.59375 -130.789062 219.59375 -152.925781 219.59375 -175.0625 C 219.59375 -198.707031 218.707031 -222.476562 216.9375 -246.375 C 215.175781 -270.269531 211.53125 -293.785156 206 -316.921875 C 204.488281 -323.972656 202.726562 -330.894531 200.71875 -337.6875 C 198.707031 -344.476562 195.941406 -351.140625 192.421875 -357.671875 C 185.878906 -369.242188 177.078125 -371.003906 166.015625 -362.953125 C 162.992188 -360.941406 160.222656 -358.425781 157.703125 -355.40625 C 155.191406 -352.394531 152.679688 -349.378906 150.171875 -346.359375 C 144.128906 -337.804688 138.84375 -328.875 134.3125 -319.5625 C 129.789062 -310.257812 125.769531 -300.828125 122.25 -291.265625 C 109.664062 -254.046875 98.21875 -216.695312 87.90625 -179.21875 C 77.59375 -141.738281 71.679688 -103.128906 70.171875 -63.390625 C 70.171875 -56.347656 69.664062 -49.300781 68.65625 -42.25 C 67.65625 -35.207031 66.90625 -28.164062 66.40625 -21.125 C 65.90625 -14.082031 64.773438 -9.679688 63.015625 -7.921875 C 61.253906 -6.160156 56.847656 -5.28125 49.796875 -5.28125 C 39.742188 -4.78125 28.929688 -5.03125 17.359375 -6.03125 C 9.804688 -6.03125 5.023438 -6.910156 3.015625 -8.671875 C 1.003906 -10.429688 -0.753906 -15.085938 -2.265625 -22.640625 C -4.773438 -35.710938 -6.660156 -48.789062 -7.921875 -61.875 C -9.179688 -74.957031 -10.0625 -88.035156 -10.5625 -101.109375 C -13.082031 -150.921875 -12.957031 -200.597656 -10.1875 -250.140625 C -7.414062 -299.691406 -2.257812 -349.117188 5.28125 -398.421875 C 5.78125 -400.429688 6.15625 -402.316406 6.40625 -404.078125 C 6.664062 -405.835938 7.046875 -407.472656 7.546875 -408.984375 C 9.054688 -420.054688 15.09375 -425.34375 25.65625 -424.84375 C 30.6875 -424.84375 35.59375 -425.21875 40.375 -425.96875 C 45.15625 -426.71875 50.054688 -427.09375 55.078125 -427.09375 C 64.640625 -427.601562 70.300781 -427.101562 72.0625 -425.59375 C 73.820312 -424.082031 74.953125 -418.546875 75.453125 -408.984375 C 76.460938 -396.910156 77.21875 -384.835938 77.71875 -372.765625 C 78.226562 -360.691406 78.226562 -348.617188 77.71875 -336.546875 C 77.71875 -335.035156 77.71875 -333.273438 77.71875 -331.265625 C 77.71875 -329.253906 77.71875 -326.738281 77.71875 -323.71875 C 81.75 -326.238281 84.515625 -329.003906 86.015625 -332.015625 C 87.523438 -335.035156 89.289062 -337.804688 91.3125 -340.328125 C 98.351562 -350.378906 106.019531 -359.679688 114.3125 -368.234375 C 122.613281 -376.785156 132.300781 -384.082031 143.375 -390.125 C 166.007812 -403.207031 187.765625 -406.097656 208.640625 -398.796875 C 229.515625 -391.503906 244.984375 -375.785156 255.046875 -351.640625 C 260.078125 -338.554688 263.847656 -325.472656 266.359375 -312.390625 C 268.878906 -299.316406 270.644531 -285.988281 271.65625 -272.40625 C 272.65625 -262.34375 273.53125 -252.15625 274.28125 -241.84375 C 275.039062 -231.53125 275.675781 -221.09375 276.1875 -210.53125 C 280.207031 -212.039062 282.972656 -214.300781 284.484375 -217.3125 C 285.992188 -220.332031 287.503906 -223.101562 289.015625 -225.625 C 294.546875 -234.175781 300.328125 -242.347656 306.359375 -250.140625 C 312.398438 -257.941406 318.941406 -265.363281 325.984375 -272.40625 C 329.003906 -274.925781 332.019531 -277.441406 335.03125 -279.953125 C 338.050781 -282.472656 341.070312 -284.988281 344.09375 -287.5 C 363.71875 -300.070312 381.703125 -303.210938 398.046875 -296.921875 C 414.398438 -290.640625 425.59375 -276.429688 431.625 -254.296875 C 435.144531 -242.722656 437.660156 -231.148438 439.171875 -219.578125 C 440.679688 -208.015625 441.6875 -196.445312 442.1875 -184.875 C 442.1875 -168.78125 443.191406 -152.804688 445.203125 -136.953125 C 447.222656 -121.109375 449.488281 -105.140625 452 -89.046875 C 453.007812 -83.503906 454.519531 -78.09375 456.53125 -72.8125 C 458.539062 -67.53125 461.554688 -62.878906 465.578125 -58.859375 C 471.117188 -52.316406 477.15625 -51.5625 483.6875 -56.59375 C 487.71875 -59.613281 491.113281 -62.882812 493.875 -66.40625 C 496.644531 -69.925781 499.289062 -73.695312 501.8125 -77.71875 C 514.382812 -96.332031 525.703125 -115.703125 535.765625 -135.828125 C 545.828125 -155.953125 555.632812 -176.070312 565.1875 -196.1875 C 567.195312 -199.707031 569.082031 -203.476562 570.84375 -207.5 C 572.601562 -211.53125 574.492188 -215.5625 576.515625 -219.59375 C 578.523438 -224.113281 581.164062 -226.625 584.4375 -227.125 C 587.707031 -227.632812 591.351562 -227.132812 595.375 -225.625 Z M 595.375 -225.625 "/></g></g></g></g></g><g clip-path="url(#a1b76ce49f)"><g clip-path="url(#3d913173e7)"><g transform="matrix(1, 0, 0, 1, 1029, 702)"><g clip-path="url(#45799a7345)"><g clip-path="url(#78e9c2d3ce)"><g clip-path="url(#cc98a61f46)"><path fill="#ebe2cd" d="M 0.824219 0.578125 L 57.191406 0.578125 L 57.191406 51.75 L 0.824219 51.75 Z M 0.824219 0.578125 " fill-opacity="1" fill-rule="nonzero"/></g></g></g></g></g></g></svg>